<svg width="56" height="56" viewBox="0 0 56 56" fill="none" xmlns="http://www.w3.org/2000/svg">
<path d="M28 2.51562C20.3388 2.51562 13.4624 5.90592 8.78872 11.2656H6.89062V13.7281C4.12956 17.8013 2.51562 22.7139 2.51562 28C2.51562 33.286 4.12956 38.1987 6.89062 42.2719V53.4844H49.1094V42.2719C51.8704 38.1987 53.4844 33.286 53.4844 28C53.4844 22.714 51.8704 17.8013 49.1094 13.7281V11.2656H47.2113C42.5377 5.90592 35.6612 2.51562 28 2.51562ZM28 4.48438C34.4469 4.48438 40.2824 7.07219 44.528 11.2656H11.472C15.7176 7.07219 21.5531 4.48438 28 4.48438ZM11.3055 13.2344H27.1869C26.8835 13.4028 26.5928 13.67 26.3273 14.0433C25.831 14.7413 25.4844 15.7831 25.4844 16.9531C25.4844 18.1231 25.8311 19.1649 26.3273 19.8629C26.8237 20.5608 27.4075 20.8906 28 20.8906C28.5925 20.8906 29.1763 20.5609 29.6727 19.8629C30.169 19.1649 30.5156 18.1231 30.5156 16.9531C30.5156 15.7831 30.1689 14.7413 29.6727 14.0433C29.4072 13.67 29.1165 13.4029 28.813 13.2344H44.6945L33.7093 20.0156H37.6878L47.0665 14.2255C47.0911 14.2597 47.1162 14.2933 47.1406 14.3275V21.9844H30.3583C29.6898 22.5229 28.8832 22.8594 28 22.8594C27.1168 22.8594 26.3102 22.5229 25.6415 21.9844H8.85938V14.3275C8.88377 14.2933 8.90892 14.2597 8.93353 14.2256L18.3122 20.0156H22.2906L11.3055 13.2344ZM6.89062 17.6201V38.3799C5.35063 35.2501 4.48438 31.7275 4.48438 28C4.48438 24.2725 5.35063 20.7499 6.89062 17.6201ZM49.1094 17.6201C50.6494 20.7499 51.5156 24.2725 51.5156 28C51.5156 31.7275 50.6494 35.2501 49.1094 38.3799V17.6201ZM8.85938 24.3906H23.7344V51.1295C21.5549 50.7311 19.4432 50.0246 17.4628 49.0312L21.7656 42.577V38.1932L15.2452 47.7644C12.7526 46.1533 10.5861 44.0865 8.85938 41.6725V24.3906ZM32.2656 24.3906H47.1406V41.6725C45.4139 44.0865 43.2474 46.1533 40.7548 47.7644L34.2344 38.1932V42.577L38.5372 49.0312C36.5568 50.0246 34.4451 50.7312 32.2656 51.1296V24.3906ZM27.0156 35H28.9844V51.4936C28.6564 51.5077 28.3282 51.515 28 51.5156C27.6701 51.5156 27.3422 51.507 27.0156 51.4936V35ZM8.85938 44.8141C11.3971 47.7001 14.5757 50.0088 18.1724 51.5156H8.85938V44.8141ZM47.1406 44.8141V51.5156H37.8276C41.4242 50.0088 44.6029 47.7001 47.1406 44.8141Z" fill="#087D73"/>
</svg>
