<svg width="44" height="40" viewBox="0 0 44 40" fill="none" xmlns="http://www.w3.org/2000/svg">
<path d="M0 26V36.3125H43.3125V26H0ZM5.15625 29.6562C5.55407 29.6562 5.93561 29.8143 6.21691 30.0956C6.49821 30.3769 6.65625 30.7584 6.65625 31.1562C6.65625 31.5541 6.49821 31.9356 6.21691 32.2169C5.93561 32.4982 5.55407 32.6562 5.15625 32.6562C4.75843 32.6562 4.37689 32.4982 4.09559 32.2169C3.81429 31.9356 3.65625 31.5541 3.65625 31.1562C3.65625 30.7584 3.81429 30.3769 4.09559 30.0956C4.37689 29.8143 4.75843 29.6562 5.15625 29.6562ZM9.65625 29.6562C10.0541 29.6562 10.4356 29.8143 10.7169 30.0956C10.9982 30.3769 11.1562 30.7584 11.1562 31.1562C11.1562 31.5541 10.9982 31.9356 10.7169 32.2169C10.4356 32.4982 10.0541 32.6562 9.65625 32.6562C9.25842 32.6562 8.87689 32.4982 8.59559 32.2169C8.31429 31.9356 8.15625 31.5541 8.15625 31.1562C8.15625 30.7584 8.31429 30.3769 8.59559 30.0956C8.87689 29.8143 9.25842 29.6562 9.65625 29.6562ZM14.1562 29.6562C14.5541 29.6562 14.9356 29.8143 15.2169 30.0956C15.4982 30.3769 15.6562 30.7584 15.6562 31.1562C15.6562 31.5541 15.4982 31.9356 15.2169 32.2169C14.9356 32.4982 14.5541 32.6562 14.1562 32.6562C13.7584 32.6562 13.3769 32.4982 13.0956 32.2169C12.8143 31.9356 12.6562 31.5541 12.6562 31.1562C12.6562 30.7584 12.8143 30.3769 13.0956 30.0956C13.3769 29.8143 13.7584 29.6562 14.1562 29.6562ZM4.5 38V39.5H8.8125V38H4.5ZM34.5 38V39.5H38.8125V38H34.5Z" fill="#087D73"/>
<circle cx="22" cy="10" r="9" stroke="#087D73" stroke-width="2"/>
<path d="M21.7134 15H20.0934V6.42H25.5774V7.788H21.7134V10.02H25.3614V11.388H21.7134V15Z" fill="#087D73"/>
</svg>
